<?xml version="1.0" encoding="utf-8"?>
<!-- Generator: Adobe Illustrator 21.0.2, SVG Export Plug-In . SVG Version: 6.00 Build 0)  -->
<svg version="1.1" id="Layer_1" xmlns="http://www.w3.org/2000/svg" xmlns:xlink="http://www.w3.org/1999/xlink" x="0px" y="0px"
	 viewBox="0 0 100 100" style="enable-background:new 0 0 100 100;" xml:space="preserve">
<path d="M93.1,27.8L76.4,10.2C75,8.8,73.2,8,71.3,8H12c-3.9,0-7,3.1-7,7v70c0,3.9,3.1,7,7,7h76c3.9,0,7-3.1,7-7V32.6
	C95,30.8,94.3,29.1,93.1,27.8z M31,14h34v18H31V14z M76,86H24V50h52V86z M89,85c0,0.5-0.5,1-1,1h-8V48c0-1.1-0.9-2-2-2H22
	c-1.1,0-2,0.9-2,2v38h-8c-0.5,0-1-0.5-1-1V15c0-0.5,0.5-1,1-1h15v20c0,1.1,0.9,2,2,2h38c1.1,0,2-0.9,2-2V14h2.3
	c0.3,0,0.5,0.1,0.7,0.3l16.7,17.6c0.2,0.2,0.3,0.4,0.3,0.7V85z M59,16h-6c-1.1,0-2,0.9-2,2v10c0,1.1,0.9,2,2,2h6c1.1,0,2-0.9,2-2V18
	C61,16.9,60.1,16,59,16z M57,26h-2v-6h2V26z M30,58c0-1.1,0.9-2,2-2h36c1.1,0,2,0.9,2,2c0,1.1-0.9,2-2,2H32C30.9,60,30,59.1,30,58z
	 M30,68c0-1.1,0.9-2,2-2h36c1.1,0,2,0.9,2,2c0,1.1-0.9,2-2,2H32C30.9,70,30,69.1,30,68z M30,78c0-1.1,0.9-2,2-2h36c1.1,0,2,0.9,2,2
	c0,1.1-0.9,2-2,2H32C30.9,80,30,79.1,30,78z"/>
</svg>
